<?xml version="1.0" encoding="UTF-8"?>
<svg version="1.1" xmlns="http://www.w3.org/2000/svg" width="1024" height="1024">
<path d="M0 0 C337.92 0 675.84 0 1024 0 C1024 337.92 1024 675.84 1024 1024 C686.08 1024 348.16 1024 0 1024 C0 686.08 0 348.16 0 0 Z " fill="#FEFEFE" transform="translate(0,0)"/>
<path d="M0 0 C0 0.66 0 1.32 0 2 C1.04607422 2.34224609 1.04607422 2.34224609 2.11328125 2.69140625 C5.6082822 4.27574362 8.30867279 6.45241373 11.1875 8.9375 C11.75484863 9.42404053 12.32219727 9.91058105 12.90673828 10.41186523 C21.39616946 17.82669997 29.24054674 26.25469994 35 36 C35 36.66 35 37.32 35 38 C46.87833321 37.02887444 58.72413184 36.03684751 70.52734375 34.3671875 C80.69249992 33.29235659 80.69249992 33.29235659 84.1796875 35.1796875 C84.73914063 35.73914063 85.29859375 36.29859375 85.875 36.875 C86.53113281 37.51308594 87.18726563 38.15117187 87.86328125 38.80859375 C88.56839844 39.53175781 89.27351563 40.25492187 90 41 C90.81855469 41.79535156 91.63710938 42.59070313 92.48046875 43.41015625 C96.13901472 46.9912141 99.67676041 50.60632032 102.99609375 54.50390625 C108.33346346 60.65064598 114.21346366 66.2813504 120 72 C122.29470974 74.26778857 124.58585376 76.53909708 126.875 78.8125 C127.38562988 79.31483154 127.89625977 79.81716309 128.42236328 80.3347168 C131.2086754 83.10252571 133.85073745 85.94500618 136.41796875 88.91796875 C139.92026061 92.96214459 143.63139804 96.74310458 147.4375 100.5 C148.46315063 101.5199707 148.46315063 101.5199707 149.50952148 102.56054688 C151.67057055 104.70950926 153.83484726 106.85517279 156 109 C158.85716017 111.83033837 161.71083454 114.66412673 164.5625 117.5 C165.20437256 118.13357422 165.84624512 118.76714844 166.50756836 119.41992188 C170.32086281 123.21281906 173.93243418 127.12263944 177.43458557 131.20506287 C179.82064687 133.94097098 182.36116942 136.5070304 184.9375 139.0625 C185.6480957 139.77889648 185.6480957 139.77889648 186.37304688 140.50976562 C189.09684172 143.22630669 191.8993767 145.80033833 194.81640625 148.30859375 C200.26097323 153.02670049 205.24122236 158.19414424 210.2890625 163.328125 C214.40219922 167.48366519 218.58371917 171.46376647 223.01708984 175.27539062 C229.5459516 180.95378012 235.73928576 187.02982343 242 193 C242.59973633 193.56960449 243.19947266 194.13920898 243.81738281 194.72607422 C245.36679861 196.20390135 246.90452053 197.69265435 248.4375 199.1875 C249.28183594 200.00605469 250.12617187 200.82460938 250.99609375 201.66796875 C255.46261453 206.86584965 255.52736263 212.65489261 256.03515625 219.22265625 C256.11837631 220.2266748 256.20159637 221.23069336 256.28733826 222.26513672 C256.55460925 225.53027716 256.80919655 228.79624846 257.0625 232.0625 C257.15192871 233.18099335 257.24135742 234.29948669 257.33349609 235.45187378 C258.39111229 248.68643567 259.27968346 261.87064051 259.56665039 275.14575195 C259.94555222 288.88429874 261.30436332 302.56731651 262.54101562 316.25024414 C263.53749408 327.42789689 264.29229324 338.57242051 264.6529541 349.79046631 C264.85983828 355.92363685 265.3416784 361.96894047 266.0625 368.0625 C266.71355916 373.83405929 267.25337382 379.56501085 267.375 385.375 C267.40335938 386.53773438 267.43171875 387.70046875 267.4609375 388.8984375 C266.89306569 392.71954107 265.72036518 394.2987251 263 397 C259.91698764 398.84361461 257.08987438 399.46485429 253.5546875 400 C251.95391357 400.24556641 251.95391357 400.24556641 250.32080078 400.49609375 C249.18368652 400.66238281 248.04657227 400.82867188 246.875 401 C245.6979248 401.17660156 244.52084961 401.35320312 243.30810547 401.53515625 C236.22666057 402.58010235 229.14805043 403.48412547 222.02832031 404.21533203 C211.53312106 405.32021331 201.10207425 406.94542395 190.66113281 408.46777344 C184.77572922 409.32334691 178.88780344 410.16112961 173 411 C165.94070714 412.00691685 158.88179228 413.01625082 151.82421875 414.03515625 C149.44535026 414.37786635 147.06644428 414.72031637 144.6875 415.0625 C143.53266113 415.22862793 142.37782227 415.39475586 141.18798828 415.56591797 C132.67959203 416.78105906 124.16257242 417.91578159 115.6315918 418.96118164 C111.34907293 419.49955315 107.13675328 420.14355717 102.91015625 421.0234375 C98.30803838 421.97905374 93.73742649 422.54732226 89.0625 423 C84.16737184 423.50639257 79.33195429 424.04406468 74.5 425 C70.08161833 425.86115385 65.66154581 426.40636266 61.1875 426.875 C53.16466716 427.71880823 45.1666886 428.72870601 37.1703186 429.79083252 C35.81234296 429.97120433 34.45425008 430.15069577 33.09603882 430.32928467 C31.1704577 430.58284723 29.24537511 430.84018673 27.3203125 431.09765625 C26.19898926 431.24726807 25.07766602 431.39687988 23.92236328 431.55102539 C21.55025535 431.91546202 19.32097359 432.41537798 17 433 C15.55531041 433.18260205 14.10671586 433.33592397 12.65625 433.46484375 C11.82859131 433.54154297 11.00093262 433.61824219 10.14819336 433.69726562 C8.83733765 433.81618164 8.83733765 433.81618164 7.5 433.9375 C0.99954475 434.55377768 -5.38931181 435.33309491 -11.81640625 436.5 C-16.03007758 437.16177906 -20.25653152 437.57800216 -24.5 438 C-29.70212193 438.51773475 -34.85109138 439.07435351 -40 440 C-45.97603286 441.07434299 -51.97623397 441.64957401 -58.01391602 442.25 C-62.35719283 442.69161607 -66.63912618 443.21958603 -70.9375 444 C-77.64381325 445.18997855 -84.38899567 445.78352737 -91.1640625 446.43359375 C-105.97892155 447.85621267 -120.80937527 449.28148343 -135.5234375 451.53515625 C-141.11167829 452.282348 -146.72590179 452.74446184 -152.34033203 453.25024414 C-157.03378985 453.68334962 -161.66367402 454.20447898 -166.3125 455 C-175.41410859 456.50323342 -184.63255997 457.02275304 -193.82177734 457.74121094 C-197.96076507 458.07823099 -202.09430709 458.46584571 -206.22875977 458.85400391 C-209.99991025 459.19941005 -213.77335677 459.50673278 -217.54882812 459.80078125 C-219.07735531 459.92501214 -220.60502801 460.06100191 -222.13085938 460.21484375 C-231.09255329 461.11009962 -231.09255329 461.11009962 -235.16796875 458.73828125 C-237.43010493 456.65675475 -239.1680439 454.47117664 -241 452 C-241.82391127 450.93205438 -242.64815121 449.86436227 -243.47265625 448.796875 C-250.48537192 439.55855158 -256.92574632 429.89085135 -263.4375 420.29736328 C-265.77828428 416.8556789 -268.13861441 413.42756736 -270.5 410 C-273.36860788 405.83350224 -276.23177236 401.66345281 -279.08203125 397.484375 C-284.68996891 389.26435725 -290.33699052 381.07615608 -296.0625 372.9375 C-302.05437271 364.41184546 -307.87360266 355.78259258 -313.61816406 347.08886719 C-315.77796796 343.82397635 -317.95188888 340.56854128 -320.125 337.3125 C-320.94404917 336.08335915 -321.76305994 334.85419272 -322.58203125 333.625 C-324.18045098 331.22704879 -325.78224962 328.83140731 -327.38671875 326.4375 C-332.72266703 318.46812844 -337.97063948 310.44494891 -343.18725586 302.39697266 C-346.3834775 297.47112484 -349.60537063 292.56489686 -352.875 287.6875 C-357.32018176 281.05305449 -361.69654867 274.37430997 -366.0625 267.6875 C-367.06482666 266.15452271 -367.06482666 266.15452271 -368.08740234 264.59057617 C-368.70953613 263.63642822 -369.33166992 262.68228027 -369.97265625 261.69921875 C-370.53218994 260.84158936 -371.09172363 259.98395996 -371.66821289 259.1003418 C-375.52635061 253.01572973 -373.11695228 246.19808051 -371.625 239.5 C-370.78117271 235.82796036 -369.77439278 232.28691531 -368.54296875 228.73046875 C-366.87903431 223.82824607 -365.76945427 218.86987913 -364.6875 213.8125 C-362.3507926 203.2004818 -359.53916955 192.75587028 -356.62841797 182.28955078 C-355.61036605 178.58042457 -354.69103758 174.84915364 -353.77734375 171.11328125 C-352.72489131 166.89818277 -351.61096159 162.69999662 -350.5 158.5 C-348.16453974 149.65168696 -345.87632182 140.7991677 -343.8125 131.8828125 C-343.59658203 130.95710449 -343.38066406 130.03139648 -343.15820312 129.07763672 C-342.7302657 127.23922008 -342.30683758 125.39974593 -341.88867188 123.55908203 C-340.63144208 118.16532366 -338.99416893 113.16424726 -337 108 C-336.46149419 106.07284725 -335.95769486 104.13542753 -335.5 102.1875 C-334.32549082 97.32429792 -333.09531631 92.48760967 -331.73828125 87.671875 C-331.24287112 85.87896214 -330.78222532 84.07610741 -330.35546875 82.265625 C-328.82639395 76.22086148 -327.24182562 73.45737435 -322 70 C-319.23262215 68.61631108 -316.69597155 68.57833633 -313.61328125 68.28125 C-312.96913269 68.21885635 -312.32498413 68.15646271 -311.66131592 68.09217834 C-309.54549335 67.88965577 -307.42909287 67.69429667 -305.3125 67.5 C-304.58328339 67.43175018 -303.85406677 67.36350037 -303.10275269 67.29318237 C-294.4236953 66.48491863 -285.7780684 65.81655435 -277.0625 65.5625 C-264.29032587 65.18027839 -251.60520251 63.77760401 -238.90258789 62.45922852 C-230.95477057 61.64014332 -223.02617928 60.88565352 -215.046875 60.453125 C-195.48823649 60.49333176 -195.48823649 60.49333176 -178.30859375 53.16015625 C-175.51093462 50.02088426 -173.31033505 46.5046259 -171 43 C-161.32212144 32.80229858 -150.20334407 26.52540805 -137 22 C-135.98292969 21.64035156 -134.96585938 21.28070313 -133.91796875 20.91015625 C-131.2760719 20.08611078 -128.85912095 19.61687885 -126.125 19.25 C-115.51599204 17.38979039 -104.55353942 13.93121639 -97 6 C-97.50580203 1.57423225 -99.1179562 -0.66763686 -102 -4 C-103.5547669 -7.10953379 -103.28644437 -9.56266761 -103 -13 C-100.54471661 -17.81613281 -97.78613589 -20.51829991 -93 -23 C-63.29189185 -32.48934126 -25.79260995 -13.59131543 0 0 Z " fill="#121716" transform="translate(573,346)"/>
<path d="M0 0 C0.83449874 7.27206042 1.21230078 14.49896894 1.4375 21.8125 C1.70852635 29.51336728 2.12004282 37.15030571 2.9375 44.8125 C3.98429036 54.73265295 4.5711373 64.66764012 5.125 74.625 C5.16938202 75.4041275 5.21376404 76.183255 5.25949097 76.98599243 C5.75013123 85.66022398 6.14892396 94.30804113 6 103 C0.2174536 105.25709065 -5.70702668 105.98979642 -11.8125 106.875 C-14.15247273 107.22309239 -16.49231338 107.57207369 -18.83203125 107.921875 C-20.0226416 108.09912109 -21.21325195 108.27636719 -22.43994141 108.45898438 C-26.91479533 109.13901978 -31.38012646 109.87127381 -35.84619141 110.60644531 C-44.9373723 112.10123307 -53.99945878 113.41796753 -63.16552734 114.35205078 C-67.67811836 114.82017057 -72.03294533 115.54520551 -76.4609375 116.5078125 C-80.20064339 117.2327401 -83.96818129 117.66018932 -87.7487793 118.1159668 C-106.4274133 120.37198214 -125.05074779 122.96454909 -143.64590454 125.81991577 C-158.07670947 128.03449084 -172.53007593 130.05675589 -187 132 C-188.04397949 132.14179687 -189.08795898 132.28359375 -190.16357422 132.4296875 C-200.22208482 133.79464461 -210.26714242 135.06179597 -220.375 136 C-226.35729547 136.55710309 -232.22288769 137.31431014 -238.125 138.4375 C-244.97343659 139.73463826 -251.82231458 140.61342327 -258.75 141.375 C-271.4497675 142.77143954 -284.10052893 144.45938977 -296.75683594 146.19873047 C-311.8793241 148.27559582 -327.0208171 150.14907862 -342.1875 151.875 C-342.92590118 151.95926239 -343.66430237 152.04352478 -344.42507935 152.13034058 C-356.25840311 153.47955479 -368.09624073 154.7849148 -379.9375 156.0625 C-380.70912476 156.14576538 -381.48074951 156.22903076 -382.27575684 156.31481934 C-390.20359764 157.16941935 -398.13226805 158.01553206 -406.0625 158.84765625 C-408.52086641 159.10645681 -410.97920127 159.36555729 -413.4375 159.625 C-414.58637695 159.74609131 -415.73525391 159.86718262 -416.91894531 159.99194336 C-422.53080094 160.59309441 -428.10932909 161.26681986 -433.6875 162.125 C-439.49552321 163.01797434 -445.27835125 163.39547305 -451.14331055 163.65869141 C-454.17438898 163.79987385 -457.10736251 164.01811911 -460.1015625 164.5234375 C-463.24363798 165.04005908 -466.19334441 165.09785173 -469.375 165.0625 C-470.43460937 165.05347656 -471.49421875 165.04445313 -472.5859375 165.03515625 C-473.38257813 165.02355469 -474.17921875 165.01195312 -475 165 C-473.15534104 147.90746856 -473.15534104 147.90746856 -471.5 141.234375 C-470.85248315 138.34078407 -470.43254207 135.43317593 -470 132.5 C-469.45775747 128.83139041 -468.87052402 125.22951352 -468 121.625 C-467.13372795 117.91335744 -466.60342345 114.21872396 -466.125 110.4375 C-465.11545759 102.49736882 -463.80242282 94.62030539 -462.46801758 86.72900391 C-461.38504104 80.32287919 -460.34571369 73.91542991 -459.39453125 67.48828125 C-458.99618475 64.97593745 -458.51606836 62.49059076 -458 60 C-449.22795788 58.47707602 -440.46750134 56.99089974 -431.625 55.9375 C-426.13830208 55.28277569 -420.71436543 54.47194738 -415.27172852 53.52563477 C-411.7724461 52.96344127 -408.27203646 52.51458585 -404.75390625 52.0859375 C-398.90414335 51.36598632 -393.05803044 50.62310454 -387.21484375 49.8515625 C-386.46890961 49.75308014 -385.72297546 49.65459778 -384.95443726 49.5531311 C-383.41137783 49.34918692 -381.86833815 49.14509334 -380.32531738 48.94085693 C-376.16893912 48.3910574 -372.01219147 47.84406321 -367.85546875 47.296875 C-367.02036774 47.18693207 -366.18526672 47.07698914 -365.32485962 46.9637146 C-347.02370032 44.55486163 -328.72467337 42.16190322 -310.38330078 40.07592773 C-302.95950347 39.23071252 -295.54041511 38.35346378 -288.125 37.4375 C-286.70876343 37.26528931 -286.70876343 37.26528931 -285.26391602 37.08959961 C-280.60037653 36.50836123 -275.97326071 35.83725307 -271.34375 35.02734375 C-264.46876891 33.85603837 -257.55685204 33.11542812 -250.62646484 32.36865234 C-239.37522926 31.15104953 -228.17250364 29.81948871 -217 28 C-205.95537826 26.20232565 -194.88577977 24.90931571 -183.7666626 23.68463135 C-174.53397057 22.665617 -165.34569174 21.54907663 -156.18334961 20.00585938 C-150.46807826 19.04613388 -144.74435199 18.34144 -138.9855957 17.69873047 C-134.82477046 17.22983615 -130.69591624 16.66734755 -126.5625 16 C-121.66661011 15.21377223 -116.76609807 14.63264956 -111.8359375 14.1171875 C-102.75258954 13.13625882 -93.72665606 11.8515449 -84.69012451 10.51333618 C-68.72999938 8.15459199 -52.76751618 6.04139933 -36.71899414 4.38134766 C-28.52973784 3.50757226 -20.54236269 2.25075886 -12.47900391 0.61083984 C-8.20745767 -0.13915375 -4.31995037 -0.23142591 0 0 Z " fill="#FD9D90" transform="translate(823,630)"/>
<path d="M0 0 C1.73828125 1.46875 1.73828125 1.46875 3.3125 3.5 C6.28675401 7.16459062 9.41867434 10.47320281 12.8125 13.75 C14.67797537 15.66877467 16.41441067 17.62713868 18.15625 19.65625 C22.37100668 24.50906153 26.92111961 28.9934558 31.5 33.5 C33.13791964 35.11204413 34.77337266 36.72659861 36.40625 38.34375 C37.12103516 39.04693359 37.83582031 39.75011719 38.57226562 40.47460938 C40.5545479 42.53662947 42.42809047 44.63071676 44.29492188 46.79492188 C47.97613366 51.03244954 51.8832314 54.9940454 55.875 58.9375 C56.60315918 59.66187256 57.33131836 60.38624512 58.08154297 61.13256836 C60.38525646 63.42418303 62.69219474 65.71250652 65 68 C68.04464779 71.01785081 71.08582967 74.03913416 74.125 77.0625 C74.81062012 77.73982178 75.49624023 78.41714355 76.20263672 79.11499023 C80.11582553 83.00852201 83.8375605 87.00590382 87.42860413 91.19908142 C89.97156205 94.11347127 92.69354373 96.83874463 95.4375 99.5625 C95.95892578 100.08779297 96.48035156 100.61308594 97.01757812 101.15429688 C99.81924645 103.94914018 102.68320715 106.61208116 105.69140625 109.18359375 C111.78587321 114.45943363 117.35178346 120.29541818 123.00927734 126.02978516 C128.26233129 131.3477127 133.52433488 136.57561958 139.21240234 141.43505859 C142.1417549 143.99954233 144.84286664 146.77941548 147.5625 149.5625 C151.87882321 153.93381618 156.23015699 158.11756964 161 162 C160.67 162.66 160.34 163.32 160 164 C153.66740688 166.01746329 146.71713202 166.23901641 140.125 166.8125 C129.93334622 167.70273768 119.81981917 169.04452069 109.6875 170.4375 C108.88041595 170.54822845 108.07333191 170.65895691 107.24179077 170.77304077 C104.03236662 171.21342572 100.82299002 171.65415374 97.61372375 172.09568787 C76.96917171 174.93150274 56.27374064 177.20396105 35.54833984 179.35888672 C22.05838968 180.76638259 8.67086605 182.44762505 -4.72314453 184.58740234 C-12.7301192 185.85025143 -20.71975891 186.76159225 -28.7890625 187.50390625 C-42.7781578 188.79777447 -56.74540278 190.47172456 -70.640625 192.5390625 C-76.25198664 193.30899352 -81.88574097 193.85558367 -87.51953125 194.43359375 C-93.97419689 195.09650536 -100.42494271 195.79378287 -106.875 196.5 C-107.97932373 196.61851318 -109.08364746 196.73702637 -110.22143555 196.85913086 C-115.80725064 197.47329117 -121.3554906 198.1874108 -126.90625 199.06640625 C-131.15673224 199.73894687 -135.32121818 200.25013219 -139.625 200.4375 C-145.31209823 200.78543148 -150.82724577 201.55609864 -156.4375 202.5 C-162.11539192 203.45296829 -167.67850047 204.19953046 -173.4375 204.5 C-179.2688113 204.80658182 -184.92831232 205.52459983 -190.6875 206.4375 C-197.19962899 207.46657262 -203.68483547 208.33166345 -210.25 208.9375 C-219.33485673 209.78305624 -228.38483101 210.86796028 -237.4375 212 C-238.11373413 212.08385956 -238.78996826 212.16771912 -239.48669434 212.25411987 C-254.21274387 214.01178965 -254.21274387 214.01178965 -268.80859375 216.59326172 C-271.76144301 217.17571002 -273.20725723 217.17804622 -276 216 C-279.52731922 212.00855983 -282.15399211 207.66736523 -284.80175781 203.06054688 C-286.57457114 200.01194368 -288.50815829 197.07588415 -290.4375 194.125 C-291.18489502 192.96046955 -291.93096665 191.79508878 -292.67578125 190.62890625 C-295.14751988 186.76609123 -297.6340987 182.91298052 -300.125 179.0625 C-300.5797168 178.35947754 -301.03443359 177.65645508 -301.50292969 176.93212891 C-304.75791551 171.90523101 -308.03041413 166.88995163 -311.30712891 161.87719727 C-318.02406272 151.59946875 -324.67874449 141.28413088 -331.28637695 130.93579102 C-335.12701274 124.92167343 -338.98694867 118.92105496 -342.875 112.9375 C-347.56223862 105.71654898 -352.12895127 98.42434382 -356.68017578 91.1171875 C-372.40642595 65.70082745 -372.40642595 65.70082745 -390.0390625 41.6015625 C-391.67272479 39.4341938 -392.91072833 37.4713583 -394 35 C-387.1383549 33.84298052 -380.24130423 33.52947329 -373.30078125 33.1328125 C-371.94294149 33.05218832 -370.58512841 32.97111383 -369.2273407 32.88961792 C-363.50910119 32.54693452 -357.7905548 32.20975182 -352.0715332 31.88037109 C-334.92872079 30.89015554 -317.89725479 29.60993078 -300.83276367 27.64257812 C-294.68614184 26.93999777 -288.55320478 26.50981361 -282.375 26.18359375 C-277.24036638 25.90427919 -272.12153889 25.45589456 -267 25 C-267.53109375 25.88300781 -268.0621875 26.76601563 -268.609375 27.67578125 C-272.89946531 34.9212671 -276.45405122 41.93362763 -279 50 C-279.35578125 50.928125 -279.7115625 51.85625 -280.078125 52.8125 C-283.5538374 64.83021746 -281.0571652 79.03282066 -275.4921875 89.9609375 C-262.33610377 111.8061556 -242.16337795 121.98431326 -218.53515625 128.9453125 C-215.80909655 129.75861208 -213.16640736 130.64343828 -210.5 131.625 C-187.98239945 139.01946252 -162.43479264 138.54168571 -139 138 C-138.27409668 137.99129883 -137.54819336 137.98259766 -136.80029297 137.97363281 C-104.6379829 137.53022564 -68.04177453 128.17036217 -44.0625 105.5 C-37.99339651 98.98133329 -33.48460513 91.15793844 -30 83 C-29.40638672 81.61554688 -29.40638672 81.61554688 -28.80078125 80.203125 C-21.12038915 58.53633467 -25.90871378 34.7175585 -34.73046875 14.3046875 C-35.94174461 11.15164326 -36.49937137 8.32454603 -37 5 C-36.24380371 4.88406494 -35.48760742 4.76812988 -34.70849609 4.64868164 C-31.263936 4.12035382 -27.81946728 3.59143254 -24.375 3.0625 C-23.18519531 2.88009766 -21.99539063 2.69769531 -20.76953125 2.50976562 C-19.61582031 2.33251953 -18.46210937 2.15527344 -17.2734375 1.97265625 C-16.21560059 1.81031494 -15.15776367 1.64797363 -14.06787109 1.48071289 C-11.96816909 1.15170499 -9.87046414 0.80976328 -7.7746582 0.45678711 C-5.04547243 0.00748605 -2.74979612 -0.3316337 0 0 Z " fill="#FB3B3E" transform="translate(652,390)"/>
<path d="M0 0 C34.20074123 9.97326774 66.16241415 27.33408866 84.52734375 58.9375 C96.18855417 80.22876738 104.25542036 106.89231135 97.21484375 131 C88.36799682 153.29304894 71.57895453 165.01886739 50.34765625 174.24609375 C42.23529229 177.41460065 33.73497822 179.30056141 25.21484375 181 C24.46525391 181.15388184 23.71566406 181.30776367 22.94335938 181.46630859 C-20.40196229 189.95369694 -73.79522991 185.57414603 -111.44921875 161.28125 C-113.6730055 159.61537441 -115.7321556 157.87196682 -117.78515625 156 C-118.62691406 155.24976563 -119.46867187 154.49953125 -120.3359375 153.7265625 C-129.5578361 145.06480886 -134.39484015 136.90465335 -134.953125 124.16796875 C-135.03811338 106.84733757 -131.01054999 95.96690995 -120.78515625 82 C-120.15480469 81.10152344 -119.52445312 80.20304687 -118.875 79.27734375 C-114.26654423 72.76320449 -109.32931036 66.74110452 -103.78515625 61 C-103.17285156 60.36191406 -102.56054688 59.72382813 -101.9296875 59.06640625 C-96.10400486 53.48915357 -89.04268556 50.2941977 -81.78515625 47 C-81.08648437 46.67 -80.3878125 46.34 -79.66796875 46 C-74.59543569 43.83571923 -69.17753472 43.08708658 -63.78100586 42.11743164 C-53.26169668 40.21230194 -41.08024828 37.43748711 -33.78515625 28.9375 C-33.12515625 27.968125 -32.46515625 26.99875 -31.78515625 26 C-31.18703125 25.278125 -30.58890625 24.55625 -29.97265625 23.8125 C-28.04873651 19.25584799 -28.02726485 14.85862523 -28.78515625 10 C-30.12183866 7.03887716 -31.75532637 4.53003796 -33.78515625 2 C-25.26956066 -7.20604929 -10.91316786 -2.88314858 0 0 Z " fill="#FCF4E7" transform="translate(516.78515625,334)"/>
<path d="M0 0 C0.79878604 2.85609493 1.16845947 5.49768797 1.29711914 8.45800781 C1.33708511 9.33281799 1.37705109 10.20762817 1.41822815 11.10894775 C1.47610756 12.51681549 1.47610756 12.51681549 1.53515625 13.953125 C1.57813339 14.92731384 1.62111053 15.90150269 1.66539001 16.9052124 C1.75550421 18.96618427 1.84363586 21.02724363 1.92993164 23.08837891 C2.06143057 26.22449529 2.19911869 29.36029164 2.33789062 32.49609375 C2.42484594 34.50258831 2.51144589 36.5090983 2.59765625 38.515625 C2.65857201 39.91134735 2.65857201 39.91134735 2.72071838 41.33526611 C2.93756356 46.56244799 3.03933302 51.76832664 3 57 C-8.64079587 58.95631969 -20.28653686 60.58802369 -32.01733398 61.90942383 C-38.12553781 62.60848098 -44.16632497 63.50140046 -50.2253418 64.54272461 C-53.95140907 65.15679623 -57.68375476 65.5970271 -61.4375 66 C-66.56563013 66.57304273 -71.65568491 67.2309008 -76.75 68.0625 C-81.02413139 68.74912883 -85.24347082 69.207966 -89.5625 69.5 C-93.53568034 69.77303846 -97.39236781 70.17579514 -101.3125 70.875 C-107.24936153 71.92680618 -113.20552449 72.69692455 -119.1875 73.4375 C-120.21101563 73.56423096 -121.23453125 73.69096191 -122.2890625 73.8215332 C-127.76632915 74.49396549 -133.24550911 75.14825469 -138.7265625 75.7890625 C-139.82846924 75.91869385 -140.93037598 76.0483252 -142.06567383 76.18188477 C-144.16408354 76.42787475 -146.26285976 76.67076691 -148.36206055 76.90991211 C-154.10489605 77.582144 -159.7579076 78.47103958 -165.43920898 79.54272461 C-169.06982261 80.19103611 -172.70903476 80.61122567 -176.375 81 C-181.39752924 81.55941541 -186.38588521 82.18545065 -191.375 83 C-196.48947682 83.81452779 -201.59970974 84.41421421 -206.75 84.9375 C-214.50804605 85.72683145 -222.25569528 86.58515082 -230 87.5 C-231.02577148 87.61851318 -232.05154297 87.73702637 -233.10839844 87.85913086 C-238.91727455 88.55162637 -244.63562368 89.46072673 -250.38330078 90.54492188 C-254.38316172 91.24054986 -258.39694703 91.62677794 -262.4375 92 C-268.62927481 92.60956236 -274.71767986 93.39868402 -280.84375 94.5 C-285.68512713 95.26695083 -290.55492914 95.73742036 -295.42895508 96.24780273 C-299.579713 96.69407832 -303.65218497 97.24535815 -307.75 98.0625 C-311.56331303 98.81256608 -315.24402184 99.17296361 -319.125 99.375 C-325.65660903 99.77128397 -331.99015384 100.77461646 -338.4375 101.875 C-348.22272381 103.53207838 -357.99677779 104.6756509 -367.875 105.5625 C-378.57819851 106.52720493 -389.11210686 107.82514894 -399.70263672 109.625 C-412.28372175 111.67861813 -424.97311319 113.14927668 -437.625 114.6875 C-438.69830566 114.81898438 -439.77161133 114.95046875 -440.87744141 115.0859375 C-441.87952637 115.20582031 -442.88161133 115.32570313 -443.9140625 115.44921875 C-444.8004541 115.55580811 -445.6868457 115.66239746 -446.60009766 115.7722168 C-449 116 -449 116 -453 116 C-452.2584124 110.60336496 -451.37585443 105.24131035 -450.44140625 99.875 C-450.13465783 98.09767485 -449.82802087 96.32033046 -449.52148438 94.54296875 C-449.04445128 91.78314828 -448.56658396 89.02348119 -448.08666992 86.26416016 C-446.16413938 75.19890668 -444.36898442 64.14882076 -443 53 C-428.91011244 50.65689231 -414.84858184 48.8050292 -400.625 47.50390625 C-392.39049175 46.75046482 -384.25416085 45.98148762 -376.11328125 44.49609375 C-372.1092571 43.8580623 -368.09639653 43.46119195 -364.0625 43.0625 C-357.19786748 42.3822767 -350.38531265 41.51621737 -343.5625 40.5 C-336.192594 39.4107456 -328.83704648 38.53484942 -321.4206543 37.83764648 C-311.57305951 36.89560424 -301.75491168 35.70328868 -291.93237305 34.53369141 C-290.46012423 34.35839397 -288.98787488 34.18310098 -287.515625 34.0078125 C-286.7913179 33.92149567 -286.0670108 33.83517883 -285.320755 33.74624634 C-280.79366808 33.20826646 -276.26500825 32.68714864 -271.734375 32.1796875 C-262.37613862 31.13036891 -253.0483686 30.05775523 -243.75 28.5625 C-232.10808644 26.69520047 -220.36593025 25.61494636 -208.63769531 24.44555664 C-201.92762528 23.77077355 -195.24824301 23.09222697 -188.58984375 22.00390625 C-182.37965713 20.99503823 -176.158547 20.38432835 -169.89894104 19.78407288 C-160.36936051 18.86196312 -150.87488363 17.68479681 -141.375 16.5 C-137.92465789 16.07146258 -134.47412558 15.64449236 -131.0234375 15.21875 C-130.18776749 15.11541855 -129.35209747 15.0120871 -128.49110413 14.90562439 C-121.98369795 14.1066802 -115.47051606 13.36946978 -108.95089722 12.67724609 C-104.71311728 12.2203802 -100.51639868 11.63961676 -96.3125 10.9375 C-91.9419104 10.22802387 -87.67196521 9.83745196 -83.25 9.625 C-75.20527561 9.1674407 -67.36147318 7.84335804 -59.41992188 6.51660156 C-52.31165002 5.33903933 -45.22347565 4.38325455 -38.05688477 3.65087891 C-33.71984174 3.2045882 -29.42869334 2.63443379 -25.125 1.9375 C-16.79050564 0.60103436 -8.44461978 -0.19192318 0 0 Z " fill="#EC242B" transform="translate(819,564)"/>
<path d="M0 0 C3.52503242 1.17501081 3.88663684 1.93197326 5.8203125 4.98046875 C6.35092285 5.80764404 6.8815332 6.63481934 7.42822266 7.48706055 C7.98815918 8.37820557 8.5480957 9.26935059 9.125 10.1875 C9.70685059 11.09862549 10.28870117 12.00975098 10.88818359 12.94848633 C12.06036918 14.78510465 13.2291939 16.62387261 14.39453125 18.46484375 C16.4540901 21.71704252 18.53877801 24.95234416 20.625 28.1875 C21.32882813 29.28449219 22.03265625 30.38148438 22.7578125 31.51171875 C25.79428493 36.24103138 28.852217 40.95646536 31.90795898 45.67333984 C34.08454499 49.03455328 36.25783131 52.3977182 38.41796875 55.76953125 C38.80210937 56.36894531 39.18625 56.96835937 39.58203125 57.5859375 C40.60123216 59.17776366 41.61904004 60.7704815 42.63671875 62.36328125 C47.27185876 69.54260744 52.07227703 76.615454 56.82771301 83.71542358 C75.14649354 111.07079818 75.14649354 111.07079818 82.73876953 123.25024414 C88.54444352 132.53166987 94.68182873 141.59395398 100.77929688 150.68505859 C104.4173248 156.11570319 108.04050649 161.55623364 111.66473389 166.99609375 C113.58580228 169.87929488 115.5077825 172.76188773 117.4296875 175.64453125 C122.09022315 182.63533473 124.06743443 186.50929278 122.4296875 194.93359375 C121.9107737 197.25231909 121.38693256 199.56994475 120.859375 201.88671875 C119.28492435 209.10176355 118.37204751 216.44672216 117.32324219 223.75244141 C114.89848567 240.61219105 112.33714346 257.50742551 108.59375 274.12890625 C107.7773016 278.07686398 107.34606887 281.98560109 107 286 C102.92057025 284.64019008 101.70349229 281.91047083 99.5 278.4375 C98.6000542 277.05397405 97.69897564 275.6711844 96.796875 274.2890625 C96.33345703 273.57524414 95.87003906 272.86142578 95.39257812 272.12597656 C93.2275721 268.82077451 90.99352446 265.56472492 88.75 262.3125 C88.07723022 261.33506836 88.07723022 261.33506836 87.39086914 260.33789062 C83.60443452 254.84904337 79.77035669 249.39397586 75.9375 243.9375 C71.52712933 237.65742563 67.19237089 231.34003533 62.96850586 224.93334961 C59.07512705 219.05520338 55.03719664 213.27995875 51 207.5 C45.77277786 200.0121284 40.59808847 192.50038335 35.56591797 184.88012695 C32.89655053 180.839506 30.21105118 176.80974963 27.5234375 172.78125 C26.45767729 171.18319018 25.39192227 169.58512691 24.32617188 167.98706055 C23.77840088 167.16579681 23.23062988 166.34453308 22.66625977 165.49838257 C19.94096372 161.41208565 17.21661762 157.32515553 14.4921875 153.23828125 C13.39193179 151.58788749 12.29167135 149.93749688 11.19140625 148.28710938 C4.53515625 138.30273437 4.53515625 138.30273437 2.87937927 135.81893921 C1.79690779 134.19531775 0.71427903 132.57180113 -0.36851501 130.94839478 C-2.87123041 127.19575936 -5.37170527 123.44169039 -7.86547852 119.68310547 C-8.31386078 119.00813522 -8.76224304 118.33316498 -9.22421265 117.63774109 C-10.04649385 116.39968057 -10.86781915 115.16098428 -11.68789673 113.92146301 C-14.88965751 109.10398393 -18.2589219 104.43066089 -21.69921875 99.78125 C-26.03873627 90.50276208 -18.06761215 71.97402497 -15.625 62.3125 C-15.32045898 61.10078125 -15.01591797 59.8890625 -14.70214844 58.640625 C-12.541497 50.07072256 -10.31627903 41.5192391 -8.05078125 32.9765625 C-5.15169537 22.03593385 -2.57241352 11.02089851 0 0 Z " fill="#FC9D90" transform="translate(233,503)"/>
<path d="M0 0 C5.32153718 4.64111162 8.60374581 10.4507417 12.25 16.4375 C13.59433077 18.61893426 14.93937855 20.79992684 16.28515625 22.98046875 C16.92855957 24.02638184 17.57196289 25.07229492 18.23486328 26.14990234 C20.33977164 29.54861606 22.50247745 32.9023049 24.6875 36.25 C28.26813632 41.77267636 31.64126619 47.40256689 35 53.0625 C39.0877544 59.94310205 43.35352997 66.5933585 47.98046875 73.12109375 C51.15272588 77.64324752 54.06694388 82.32075233 57 87 C58.16531384 88.83419353 59.33199005 90.66752217 60.5 92.5 C61.08394531 93.4178125 61.66789062 94.335625 62.26953125 95.28125 C63.37041215 97.01085069 64.47190622 98.74006137 65.57421875 100.46875 C68.337217 104.80391433 71.09222545 109.14377271 73.828125 113.49609375 C78.86931961 121.51071157 83.93947571 129.48864962 89.2265625 137.34375 C91.50302005 140.75342211 93.69101183 144.21522837 95.8828125 147.6796875 C98.75100901 152.17778165 101.65566292 156.65180775 104.5625 161.125 C105.10479248 161.9603125 105.64708496 162.795625 106.20581055 163.65625 C107.00305542 164.88214844 107.00305542 164.88214844 107.81640625 166.1328125 C108.59890747 167.34529663 108.59890747 167.34529663 109.3972168 168.58227539 C110.48099419 170.21710365 111.60112453 171.82831461 112.75317383 173.41577148 C116.9384362 179.25271013 116.9384362 179.25271013 117.25390625 183.08203125 C117.02574219 183.98308594 116.79757812 184.88414062 116.5625 185.8125 C116.32660156 186.83214844 116.09070313 187.85179687 115.84765625 188.90234375 C115.56792969 189.92457031 115.28820312 190.94679688 115 192 C114.49818247 193.95786839 113.99817633 195.91620195 113.5 197.875 C113.24347656 198.85855469 112.98695313 199.84210938 112.72265625 200.85546875 C111.66741045 205.447214 111.08362385 210.07817642 110.46875 214.74609375 C109.97533306 218.17122966 109.24666141 221.47261217 108.43359375 224.83203125 C107.76554219 228.17228907 107.55633582 231.53753532 107.34375 234.93359375 C107 237 107 237 105 239 C98.10860497 229.92251289 91.98332274 220.38280388 85.81347656 210.80908203 C82.66094873 205.92580454 79.48719677 201.05638399 76.3125 196.1875 C75.67513916 195.20966553 75.03777832 194.23183105 74.38110352 193.22436523 C70.52185916 187.31078927 66.62931383 181.42141312 62.69750977 175.5559082 C59.33340951 170.52667152 56.039136 165.45349642 52.75 160.375 C48.25986982 153.44400648 43.71779547 146.55087648 39.125 139.6875 C34.19819887 132.32474567 29.329433 124.92696912 24.5 117.5 C22.00162393 113.66560604 19.5010464 109.83265255 17 106 C16.40155273 105.0812207 15.80310547 104.16244141 15.18652344 103.21582031 C2.78749796 83.89660028 2.78749796 83.89660028 -11.72241211 66.16064453 C-15.94172121 61.63658371 -15.94172121 61.63658371 -16.25390625 58.2265625 C-16.02574219 57.36804688 -15.79757813 56.50953125 -15.5625 55.625 C-15.3253125 54.67753906 -15.088125 53.73007812 -14.84375 52.75390625 C-13.89043758 49.64240044 -12.91438134 46.5500417 -11.82202148 43.484375 C-10.9586986 40.87517581 -10.27997747 38.26762443 -9.62890625 35.59765625 C-7.92343183 28.67804636 -6.15670654 21.77533804 -4.375 14.875 C-3.90707031 13.0496875 -3.90707031 13.0496875 -3.4296875 11.1875 C-3.130625 10.02992188 -2.8315625 8.87234375 -2.5234375 7.6796875 C-2.1200415 6.11323486 -2.1200415 6.11323486 -1.70849609 4.51513672 C-1 2 -1 2 0 0 Z " fill="#EC232A" transform="translate(252,434)"/>
<path d="M0 0 C19.70304412 19.42747707 31.96305045 46.10393894 32.25 74 C32.06578827 91.79108548 26.6518567 106.18949933 14 119 C-1.65406709 133.01107463 -21.72689474 139.95629653 -42 144 C-42.74958984 144.15388184 -43.49917969 144.30776367 -44.27148438 144.46630859 C-87.61680604 152.95369694 -141.01007366 148.57414603 -178.6640625 124.28125 C-186.63539622 118.30979153 -194.799937 111.16377382 -199 102 C-199 101.34 -199 100.68 -199 100 C-198.01 100 -197.02 100 -196 100 C-196 100.66 -196 101.32 -196 102 C-195.14277344 102.26167969 -194.28554688 102.52335937 -193.40234375 102.79296875 C-189.91295552 104.0308803 -186.83032862 105.57658633 -183.5625 107.3125 C-161.40190945 118.67501109 -136.33893012 122.42780286 -111.6875 122.25 C-110.53521408 122.24534729 -110.53521408 122.24534729 -109.35964966 122.24060059 C-74.41806818 122.07526975 -36.53016029 115.79532589 -10.3125 90.75 C3.47465285 76.49614522 8.52407331 61.22562727 8.28125 41.890625 C7.88993877 29.8147605 4.36518802 18.3169325 0.48754883 6.94775391 C-0.05990544 5.31490654 -0.53666956 3.65868068 -1 2 C-0.67 1.34 -0.34 0.68 0 0 Z " fill="#E2DACE" transform="translate(584,371)"/>
<path d="M0 0 C13.8291204 17.02505103 13.8291204 17.02505103 13.40234375 28.2578125 C11.55849582 40.8246207 4.09462963 48.19732222 -5.56274414 55.62573242 C-18.95797846 65.54374921 -34.17377613 72.92241984 -50 78 C-50.75079834 78.3189624 -51.50159668 78.6379248 -52.27514648 78.96655273 C-55.30018115 80.11384883 -58.24096091 80.78745573 -61.41015625 81.4375 C-62.64830078 81.69273437 -63.88644531 81.94796875 -65.16210938 82.2109375 C-66.44923828 82.47132813 -67.73636719 82.73171875 -69.0625 83 C-70.32255859 83.26039063 -71.58261719 83.52078125 -72.88085938 83.7890625 C-102.84966889 89.92221421 -131.94684743 90.27072151 -162.25 86.8125 C-163.14358215 86.71434998 -164.03716431 86.61619995 -164.95782471 86.51507568 C-191.69713454 83.52463658 -221.93637723 76.53311036 -241 56 C-244.94859978 50.7130527 -247.14167511 46.31543383 -247.1875 39.625 C-247.20167969 38.68914062 -247.21585937 37.75328125 -247.23046875 36.7890625 C-246.98668108 33.83881846 -246.23112508 31.67635888 -245 29 C-244.38125 29.639375 -243.7625 30.27875 -243.125 30.9375 C-228.19075578 45.78736995 -212.56388795 54.03848363 -192.53515625 59.9453125 C-189.80909655 60.75861208 -187.16640736 61.64343828 -184.5 62.625 C-161.98239945 70.01946252 -136.43479264 69.54168571 -113 69 C-111.91114502 68.98694824 -111.91114502 68.98694824 -110.80029297 68.97363281 C-78.6379829 68.53022564 -42.04177453 59.17036217 -18.0625 36.5 C-8.36799932 26.08738816 -3.49515894 13.55106313 0 0 Z " fill="#EC1B25" transform="translate(626,459)"/>
<path d="M0 0 C10.03561873 1.17638946 16.74023507 8.17975376 23.08984375 15.58203125 C28.65846717 22.6310658 31.56709424 30.05288153 31.38671875 39.11328125 C29.50418279 53.16574662 21.32254404 65.1461402 10.54296875 74.0234375 C2.13868804 80.08510768 -6.86723925 84.07181547 -16.5 87.75 C-17.2830249 88.05615234 -18.0660498 88.36230469 -18.87280273 88.67773438 C-27.12848329 91.73634846 -35.26758488 92.14289429 -44 92.125 C-45.27875 92.12757813 -46.5575 92.13015625 -47.875 92.1328125 C-51 92 -51 92 -53 91 C-53 89.35 -53 87.7 -53 86 C-52.34 86 -51.68 86 -51 86 C-51 85.01 -51 84.02 -51 83 C-50.37134033 82.71390869 -49.74268066 82.42781738 -49.0949707 82.13305664 C-26.86290974 71.94734427 -3.9433098 60.56827142 5.2734375 36.32421875 C6.9660413 30.9097066 7.12452365 25.93756756 7.0625 20.3125 C7.05798828 19.54099609 7.05347656 18.76949219 7.04882812 17.97460938 C7.03665261 15.98304363 7.01872898 13.9915149 7 12 C7 11.34 7 10.68 7 10 C5.25766277 8.1554338 3.39950036 6.47017593 1.53125 4.75390625 C0 3 0 3 0 0 Z " fill="#E3DBCE" transform="translate(538,356)"/>
<path d="M0 0 C3.70701036 0.56612199 4.779318 2.09496403 7.22265625 4.90625 C7.86110474 5.63896118 7.86110474 5.63896118 8.51245117 6.38647461 C14.26162199 13.10405808 19.45959138 20.26254588 24.66015625 27.40625 C25.17980957 28.11700684 25.69946289 28.82776367 26.23486328 29.56005859 C46.73338314 57.62162951 66.16139089 86.42564595 85.33319092 115.40301514 C86.52810824 117.20690554 87.72636103 119.00850968 88.92626953 120.80908203 C90.6856791 123.45719761 92.42737663 126.11566694 94.16015625 128.78125 C94.63960693 129.49772705 95.11905762 130.2142041 95.61303711 130.95239258 C98.14620076 134.90920885 99.32730336 137.6949534 98.66015625 142.40625 C97.09765625 144.84375 97.09765625 144.84375 94.66015625 146.40625 C91.28515625 146.59375 91.28515625 146.59375 87.66015625 145.40625 C82.20376219 139.77159306 78.1955417 133.27534226 74.03515625 126.65625 C73.33076416 125.54515869 72.62637207 124.43406738 71.90063477 123.28930664 C69.81454028 119.99868972 67.73759888 116.70233577 65.66015625 113.40625 C64.59960644 111.73266203 63.53847397 110.05944306 62.4765625 108.38671875 C57.68465068 100.83055102 52.93409183 93.24891129 48.19750977 85.65795898 C45.02291059 80.57122412 41.84335704 75.48760618 38.66015625 70.40625 C38.06944336 69.46313965 37.47873047 68.5200293 36.87011719 67.54833984 C26.93443178 51.7183687 16.85886229 35.90888868 5.6015625 20.9765625 C4.95058594 20.11184326 4.29960937 19.24712402 3.62890625 18.35620117 C2.38931556 16.72241175 1.13854866 15.09702154 -0.125 13.48168945 C-0.67929687 12.75425537 -1.23359375 12.02682129 -1.8046875 11.27734375 C-2.29573975 10.64755615 -2.78679199 10.01776855 -3.29272461 9.36889648 C-4.62680884 6.86838282 -4.67234593 5.20173126 -4.33984375 2.40625 C-2.33984375 0.40625 -2.33984375 0.40625 0 0 Z " fill="#FE8C98" transform="translate(283.33984375,434.59375)"/>
<path d="M0 0 C4 0 4 0 5.39453125 1.22265625 C5.86246094 1.82980469 6.33039062 2.43695313 6.8125 3.0625 C10.45183079 7.49127348 14.4227857 11.48083317 18.5 15.5 C26.35179126 23.26362215 26.35179126 23.26362215 29.6875 27.25 C33.26964139 31.47277625 37.37336866 35.09700778 41.4765625 38.80078125 C45.61767546 42.5431115 49.68468194 46.36320167 53.75 50.1875 C54.79486572 51.16686523 54.79486572 51.16686523 55.86083984 52.16601562 C71.83946905 67.20205334 71.83946905 67.20205334 72.3125 72.5 C72 76 72 76 70.875 77.9375 C67.90825245 79.61865694 66.39876982 79.56646164 63 79 C52.17311821 74.01307263 43.25207643 62.87898407 35.6640625 53.9453125 C33.69860986 51.64767068 31.66270129 49.42126877 29.625 47.1875 C25.73319314 42.87495727 22.03751683 38.43527388 18.38671875 33.91796875 C16.24388687 31.29817265 14.06129564 28.72231842 11.85595703 26.15551758 C7.883919 21.51965013 3.97554285 16.83735407 0.25 12 C-0.40484375 11.154375 -1.0596875 10.30875 -1.734375 9.4375 C-3 7 -3 7 -2.828125 4.3125 C-2 2 -2 2 0 0 Z " fill="#FE8A96" transform="translate(651,416)"/>
<path d="M0 0 C10.03561873 1.17638946 16.74023507 8.17975376 23.08984375 15.58203125 C28.65846717 22.6310658 31.56709424 30.05288153 31.38671875 39.11328125 C29.50418279 53.16574662 21.32254404 65.1461402 10.54296875 74.0234375 C2.13868804 80.08510768 -6.86723925 84.07181547 -16.5 87.75 C-17.2830249 88.05615234 -18.0660498 88.36230469 -18.87280273 88.67773438 C-27.12848329 91.73634846 -35.26758488 92.14289429 -44 92.125 C-45.27875 92.12757813 -46.5575 92.13015625 -47.875 92.1328125 C-51 92 -51 92 -53 91 C-53 89.35 -53 87.7 -53 86 C-51.86304688 85.90203125 -50.72609375 85.8040625 -49.5546875 85.703125 C-29.50734316 83.83221418 -8.09274104 78.16802167 7 64 C7.64066406 63.43667969 8.28132812 62.87335938 8.94140625 62.29296875 C16.12605853 55.64829033 19.4537242 47.5966941 20.2578125 37.88671875 C20.66422871 26.14129023 17.16758864 20.83494638 9.328125 12.3984375 C6.69160851 9.68229467 3.99656384 7.03991266 1.21484375 4.47265625 C0 3 0 3 0 0 Z " fill="#141819" transform="translate(538,356)"/>
<path d="M0 0 C0.99 0.66 1.98 1.32 3 2 C2.78786262 9.08731691 -0.60432383 13.41190318 -4.625 19.0625 C-9.62728339 26.29174505 -14.03201437 33.38179416 -17.66796875 41.3828125 C-18.9106455 43.82443544 -19.80055347 45.38521648 -22 47 C-25.5 47 -25.5 47 -29 46 C-33.26220163 40.50737065 -32.68848145 34.63514542 -32 28 C-29.32815003 17.18928395 -23.83196852 9.66643778 -15 3 C-9.96244986 -0.04075806 -5.8503954 -1.9501318 0 0 Z " fill="#FEFEFE" transform="translate(438,417)"/>
<path d="M0 0 C0.66 0 1.32 0 2 0 C5.0130108 6.67423907 4.92506124 13.68817849 2.875 20.6875 C-1.20104405 31.22510696 -9.4754439 37.73908618 -19.625 42.25 C-29.91697315 46.01021696 -41.08197343 47.62454813 -52 47 C-48.61267347 44.06602778 -44.95582868 42.76705431 -40.75 41.4375 C-40.07614258 41.21698975 -39.40228516 40.99647949 -38.70800781 40.76928711 C-35.41245317 39.70567831 -32.14228457 38.75509143 -28.75 38.0625 C-20.47138823 35.71689333 -11.97893985 31.21491284 -7 24 C-3.19760616 16.34451374 -1.13344891 8.44165679 0 0 Z " fill="#151819" transform="translate(507,357)"/>
<path d="M0 0 C7.86127713 0.40314242 14.63488909 8.31145116 19.75 13.75 C22 17 22 17 21.9375 19.875 C21 22 21 22 20 23 C16.89038398 23.60675435 14.83583503 23.54434634 12.140625 21.7890625 C9.98235327 19.95021499 7.98905286 18.02124976 6 16 C5.15953125 15.15824219 4.3190625 14.31648437 3.453125 13.44921875 C-1.36285629 8.40141228 -1.36285629 8.40141228 -3 6 C-2.81963078 2.95558618 -2.18279459 2.18279459 0 0 Z " fill="#FE919E" transform="translate(745,516)"/>
<path d="M0 0 C2.4375 0.8125 2.4375 0.8125 4.4375 2.8125 C4.6875 5.3125 4.6875 5.3125 4.4375 7.8125 C2.4375 9.8125 2.4375 9.8125 -0.5625 10.0625 C-3.5625 9.8125 -3.5625 9.8125 -5.5625 7.8125 C-5.93046448 4.94237704 -5.93759409 3.40475382 -4.375 0.9375 C-2.5625 -0.1875 -2.5625 -0.1875 0 0 Z " fill="#E75A53" transform="translate(750.5625,702.1875)"/>
<path d="M0 0 C-0.375 2.375 -0.375 2.375 -2 5 C-8.60004933 7.60081152 -16.02822204 7.23857795 -23 7 C-19.76232231 4.24402557 -16.67613399 3.04483796 -12.625 1.8125 C-10.97371094 1.29623047 -10.97371094 1.29623047 -9.2890625 0.76953125 C-6.06242563 0.01460552 -3.29901173 -0.14451864 0 0 Z " fill="#0B0E0E" transform="translate(478,397)"/>
<path d="M0 0 C2.5 0.25 2.5 0.25 4.5 2.25 C4.75 5.25 4.75 5.25 4.5 8.25 C2.5 10.25 2.5 10.25 0 10.5 C-2.5 10.25 -2.5 10.25 -4.5 8.25 C-4.75 5.25 -4.75 5.25 -4.5 2.25 C-2.5 0.25 -2.5 0.25 0 0 Z " fill="#E65750" transform="translate(410.5,753.75)"/>
<path d="M0 0 C2.5 0.25 2.5 0.25 4.5 2.25 C4.17028521 5.54714793 3.8773161 6.8726839 1.5 9.25 C-1.125 8.875 -1.125 8.875 -3.5 8.25 C-4.125 5.375 -4.125 5.375 -4.5 2.25 C-2.5 0.25 -2.5 0.25 0 0 Z " fill="#E75952" transform="translate(682.5,717.75)"/>
<path d="M0 0 C3.125 0.375 3.125 0.375 6 1 C5.67 3.31 5.34 5.62 5 8 C2.625 8.625 2.625 8.625 0 9 C-2 7 -2 7 -2.25 4.5 C-2 2 -2 2 0 0 Z " fill="#E75A52" transform="translate(788,679)"/>
<path d="M0 0 C0.78375 0.04125 1.5675 0.0825 2.375 0.125 C3 2.5 3 2.5 3.375 5.125 C2.715 5.785 2.055 6.445 1.375 7.125 C-1.25 6.75 -1.25 6.75 -3.625 6.125 C-4.25 4.25 -4.25 4.25 -4.625 2.125 C-2.625 0.125 -2.625 0.125 0 0 Z " fill="#E75B53" transform="translate(521.625,741.875)"/>
<path d="M0 0 C0.66 0.33 1.32 0.66 2 1 C-2.66666667 6.33333333 -7.33333333 11.66666667 -12 17 C-12.99 16.67 -13.98 16.34 -15 16 C-13.06327014 13.89511995 -11.12564859 11.79107304 -9.1875 9.6875 C-8.64029297 9.09259766 -8.09308594 8.49769531 -7.52929688 7.88476562 C-6.99755859 7.30791016 -6.46582031 6.73105469 -5.91796875 6.13671875 C-5.43094482 5.60780029 -4.9439209 5.07888184 -4.44213867 4.53393555 C-2.99127207 2.9907165 -1.50546232 1.48984144 0 0 Z " fill="#EBE9E4" transform="translate(417,391)"/>
<path d="M0 0 C1.32 0 2.64 0 4 0 C4.625 2.375 4.625 2.375 5 5 C4.34 5.66 3.68 6.32 3 7 C0.875 6.625 0.875 6.625 -1 6 C-1.042721 4.33388095 -1.04063832 2.66617115 -1 1 C-0.67 0.67 -0.34 0.34 0 0 Z " fill="#E6564F" transform="translate(255,619)"/>
<path d="M0 0 C0.33 0 0.66 0 1 0 C2.03387512 8.0125322 2.10466648 15.92905177 2 24 C1.67 24 1.34 24 1 24 C0.67 21.03 0.34 18.06 0 15 C-0.33 15 -0.66 15 -1 15 C-0.67 10.05 -0.34 5.1 0 0 Z " fill="#B27B70" transform="translate(822,630)"/>
<path d="M0 0 C-0.33 0.99 -0.66 1.98 -1 3 C-4.63 3 -8.26 3 -12 3 C-6.92186995 -0.80859754 -6.04719382 -1.18314662 0 0 Z " fill="#121514" transform="translate(467,401)"/>
<path d="M0 0 C1.65 0 3.3 0 5 0 C5.625 1.875 5.625 1.875 6 4 C5.34 4.66 4.68 5.32 4 6 C1.875 5.625 1.875 5.625 0 5 C0 3.35 0 1.7 0 0 Z " fill="#E75850" transform="translate(233,590)"/>
<path d="M0 0 C1.7290774 -0.02725341 3.45828176 -0.04650987 5.1875 -0.0625 C6.15042969 -0.07410156 7.11335938 -0.08570313 8.10546875 -0.09765625 C10.85576513 -0.00486622 13.32479591 0.37888315 16 1 C16 1.33 16 1.66 16 2 C10.61509359 2.91657981 5.45769811 3.11138159 0 3 C0 2.01 0 1.02 0 0 Z " fill="#CCC9C1" transform="translate(487,439)"/>
<path d="M0 0 C1.27230469 0.00902344 2.54460938 0.01804687 3.85546875 0.02734375 C5.31919922 0.04474609 5.31919922 0.04474609 6.8125 0.0625 C6.8125 0.3925 6.8125 0.7225 6.8125 1.0625 C4.75077387 1.40058686 2.6880797 1.73277361 0.625 2.0625 C-1.09783203 2.3409375 -1.09783203 2.3409375 -2.85546875 2.625 C-5.69165393 2.99739477 -8.33469564 3.14846021 -11.1875 3.0625 C-9.07664535 -1.15920929 -4.12352068 -0.03783046 0 0 Z " fill="#D49688" transform="translate(721.1875,747.9375)"/>
<path d="M0 0 C3.21524305 1.40844718 5.32183868 3.10344786 7.75 5.625 C8.67039062 6.57246094 8.67039062 6.57246094 9.609375 7.5390625 C10.29773438 8.26222656 10.29773438 8.26222656 11 9 C10.34 9.66 9.68 10.32 9 11 C7.49703315 9.35687553 5.99769719 7.71042916 4.5 6.0625 C3.6646875 5.14597656 2.829375 4.22945313 1.96875 3.28515625 C0 1 0 1 0 0 Z " fill="#222424" transform="translate(656,382)"/>
<path d="M0 0 C1.65 0.33 3.3 0.66 5 1 C4.67 2.32 4.34 3.64 4 5 C2.35 4.67 0.7 4.34 -1 4 C-0.67 2.68 -0.34 1.36 0 0 Z " fill="#E5534B" transform="translate(291,673)"/>
<path d="M0 0 C-6.49342855 3.63631999 -11.82650063 4.25850866 -19 3 C-19 2.67 -19 2.34 -19 2 C-16.77149723 1.66225668 -14.54216533 1.3299813 -12.3125 1 C-10.45044922 0.7215625 -10.45044922 0.7215625 -8.55078125 0.4375 C-5.64113629 0.07899589 -2.92299978 -0.08942256 0 0 Z " fill="#B17D71" transform="translate(624,656)"/>
<path d="M0 0 C3.76416092 3.34592082 6.92790265 7.39218533 9 12 C8.67 12.99 8.34 13.98 8 15 C6.84735447 13.25447936 5.70312673 11.50339804 4.5625 9.75 C3.92441406 8.77546875 3.28632813 7.8009375 2.62890625 6.796875 C1.2423864 4.41618385 0.453419 2.68219693 0 0 Z " fill="#E5A495" transform="translate(265,680)"/>
<path d="M0 0 C2 3 2 3 2 5 C4.64 5 7.28 5 10 5 C10 5.33 10 5.66 10 6 C6.37 6.33 2.74 6.66 -1 7 C-0.67 4.69 -0.34 2.38 0 0 Z " fill="#E02128" transform="translate(367,673)"/>
<path d="M0 0 C1.98 0 3.96 0 6 0 C5.21625 0.7425 4.4325 1.485 3.625 2.25 C0.76871373 4.97242945 0.76871373 4.97242945 -1 9 C-0.67 6.03 -0.34 3.06 0 0 Z " fill="#C31F23" transform="translate(376,617)"/>
<path d="M0 0 C0 0.66 0 1.32 0 2 C-3.63 2.33 -7.26 2.66 -11 3 C-11 2.34 -11 1.68 -11 1 C-7.32589215 -0.17571451 -3.83070817 -0.07366746 0 0 Z " fill="#D49688" transform="translate(693,752)"/>
<path d="M0 0 C1.32 0 2.64 0 4 0 C4 0.66 4 1.32 4 2 C3.401875 2.268125 2.80375 2.53625 2.1875 2.8125 C0.02775192 3.98493467 -1.35790256 5.19369282 -3 7 C-2.25 2.25 -2.25 2.25 0 0 Z " fill="#FD727E" transform="translate(651,416)"/>
<path d="M0 0 C0.66 0 1.32 0 2 0 C2.33 1.65 2.66 3.3 3 5 C2.34 5 1.68 5 1 5 C0.67 6.98 0.34 8.96 0 11 C-0.33 11 -0.66 11 -1 11 C-1.125 3.375 -1.125 3.375 0 0 Z " fill="#020404" transform="translate(507,357)"/>
</svg>
